<?xml version="1.0" standalone="no"?>
<!DOCTYPE svg PUBLIC "-//W3C//DTD SVG 20010904//EN"
 "http://www.w3.org/TR/2001/REC-SVG-20010904/DTD/svg10.dtd">
<svg version="1.0" xmlns="http://www.w3.org/2000/svg"
 width="495.000000pt" height="400.000000pt" viewBox="0 0 495.000000 400.000000"
 preserveAspectRatio="xMidYMid meet">

<g transform="translate(0.000000,400.000000) scale(0.100000,-0.100000)"
fill="#000000" stroke="none">
<path d="M1647 3549 c-195 -32 -357 -251 -259 -349 45 -44 147 -66 172 -35 15
18 5 35 -20 35 -97 0 -111 110 -27 206 54 62 124 94 202 94 62 0 130 -14 140
-29 7 -13 -46 -131 -184 -411 -146 -294 -164 -340 -151 -375 12 -31 50 -50 84
-41 31 8 44 36 132 289 99 287 190 497 215 497 6 0 42 -9 80 -21 58 -17 89
-20 177 -17 114 4 142 14 161 55 6 13 11 26 11 28 0 3 -44 5 -98 5 -68 0 -158
11 -288 34 -226 40 -283 46 -347 35z"/>
<path d="M2774 3443 c-25 -43 -100 -188 -167 -323 -114 -229 -126 -250 -192
-316 -50 -51 -81 -75 -110 -83 -78 -21 -72 3 43 204 131 227 152 285 115 317
-48 40 -74 32 -110 -33 -29 -53 -38 -59 -46 -30 -6 26 -64 61 -99 61 -32 0
-98 -51 -189 -146 -174 -183 -229 -352 -143 -438 41 -41 112 -9 225 101 l66
64 -1 -64 c-1 -84 12 -101 76 -95 45 5 72 19 177 95 23 17 24 17 16 -7 -13
-38 -8 -63 16 -82 45 -37 61 -25 113 80 l49 97 12 -42 c18 -59 49 -98 98 -122
86 -42 187 -19 284 64 l40 34 12 -39 c12 -42 67 -96 107 -106 81 -21 227 41
334 142 69 66 101 117 83 135 -6 6 -21 -7 -42 -36 -37 -52 -116 -115 -181
-144 -54 -25 -145 -27 -195 -7 -29 12 -35 20 -35 45 0 17 7 45 16 63 15 31 18
33 63 30 70 -5 140 28 200 94 57 62 96 152 87 199 -9 45 -50 100 -85 115 -30
12 -35 11 -87 -25 -103 -71 -226 -234 -258 -341 -25 -85 -34 -100 -84 -139
-98 -76 -169 -67 -217 28 -14 28 -25 65 -25 81 l0 31 73 1 c173 1 316 131 287
259 -5 23 -21 50 -36 64 -51 43 -106 22 -287 -115 l-48 -37 23 49 c13 27 51
105 85 174 35 68 63 133 63 143 0 20 -51 77 -69 77 -6 0 -31 -35 -57 -77z
m232 -247 c14 -37 -91 -152 -169 -186 -55 -24 -113 -35 -121 -22 -9 16 247
222 276 222 5 0 11 -6 14 -14z m-721 -85 c15 -25 -84 -189 -169 -279 -70 -73
-154 -142 -175 -142 -53 0 98 239 232 368 61 58 98 75 112 53z m1113 -28 c7
-51 -62 -138 -135 -168 -36 -15 -73 -20 -73 -9 0 13 63 95 113 148 57 61 89
70 95 29z"/>
<path d="M1628 2569 c-48 -28 -105 -154 -127 -284 -20 -111 -51 -419 -51 -500
0 -72 -2 -82 -22 -94 -21 -13 -21 -14 -3 -27 21 -16 91 -19 100 -4 3 5 0 18
-6 28 -9 15 -9 53 0 168 13 175 31 317 40 332 3 6 34 14 69 18 l62 7 2 -169
c2 -93 2 -191 1 -218 -1 -47 0 -48 26 -43 49 10 81 26 81 42 0 8 -4 15 -9 15
-5 0 -11 131 -13 293 -4 268 -6 297 -26 351 -12 32 -29 67 -38 77 -19 21 -59
24 -86 8z m38 -82 c7 -20 16 -79 20 -130 l7 -94 -48 -7 c-26 -4 -54 -10 -61
-13 -10 -4 -14 5 -14 32 0 107 44 262 72 253 6 -2 17 -21 24 -41z"/>
<path d="M2012 2560 c-39 -24 -38 -44 3 -48 l28 -4 -6 -210 c-4 -116 -7 -305
-7 -420 0 -178 -2 -208 -15 -208 -22 0 -18 -27 7 -44 47 -33 108 -12 193 66
65 59 130 178 152 281 10 45 16 125 17 217 0 128 -2 152 -22 200 -51 130 -131
190 -251 190 -49 0 -75 -5 -99 -20z m165 -51 c69 -26 107 -90 123 -207 18
-135 -16 -376 -69 -479 -20 -39 -102 -123 -121 -123 -11 0 -14 560 -3 723 7
106 9 109 70 86z"/>
<path d="M2472 2569 c-30 -9 -33 -13 -30 -41 3 -32 28 -53 28 -24 0 9 5 16 11
16 9 0 10 -22 6 -77 -4 -43 -10 -230 -13 -415 l-7 -338 -24 0 c-30 0 -26 -20
8 -38 25 -12 256 -12 277 2 13 8 25 87 16 109 -10 26 -34 20 -34 -8 0 -34 -29
-47 -98 -43 l-57 3 0 187 c0 102 2 188 5 191 10 10 70 -6 70 -18 0 -7 9 -23
20 -36 22 -27 24 -22 20 56 -2 52 -14 85 -30 85 -5 0 -10 -10 -12 -22 -2 -18
-10 -23 -33 -23 l-30 0 3 200 c2 170 4 200 17 199 8 0 38 -1 66 -2 50 -2 51
-2 44 -31 -4 -19 0 -41 10 -60 29 -56 45 -34 45 60 0 55 -2 60 -26 69 -32 13
-208 11 -252 -1z"/>
<path d="M2850 2571 c-20 -5 -26 -14 -28 -44 -4 -41 3 -46 25 -19 12 15 14 -6
8 -163 -3 -99 -8 -286 -11 -415 -5 -225 -6 -235 -25 -232 -26 4 -25 -24 3 -39
14 -7 68 -11 147 -10 145 2 151 5 151 82 0 56 -20 70 -36 25 -10 -29 -15 -31
-69 -37 -75 -8 -83 -5 -91 38 -8 44 4 325 15 336 15 15 61 -5 73 -31 23 -45
38 -39 38 17 0 56 -14 101 -31 101 -6 0 -13 -9 -16 -20 -6 -21 -36 -35 -53
-25 -6 4 -10 83 -10 207 l0 201 31 -7 c17 -3 47 -6 65 -6 33 0 34 -1 34 -39 0
-37 31 -93 44 -80 3 3 7 38 8 79 3 71 2 74 -22 81 -32 9 -217 9 -250 0z"/>
<path d="M3256 2555 c-82 -33 -98 -65 -34 -65 l31 0 -8 -72 c-4 -40 -9 -198
-11 -351 -2 -240 -5 -279 -19 -293 -23 -23 -9 -32 57 -40 50 -6 59 -4 64 11 5
11 1 22 -9 29 -13 10 -16 39 -19 159 l-3 148 25 6 c46 11 115 44 138 66 80 74
92 222 29 346 -42 82 -129 102 -241 56z m173 -36 c35 -33 53 -86 54 -164 2
-92 -28 -148 -101 -188 -27 -15 -55 -27 -61 -27 -8 0 -11 58 -11 194 0 215 -4
202 66 205 18 1 39 -7 53 -20z"/>
<path d="M3452 1758 c-16 -24 -39 -61 -51 -84 -23 -41 -23 -41 -72 -36 -60 6
-99 -16 -99 -54 0 -23 1 -24 16 -9 15 15 60 14 86 -2 4 -2 -21 -61 -55 -131
-34 -70 -76 -159 -94 -197 -54 -117 -185 -245 -253 -245 -41 0 -26 43 76 216
30 51 73 131 95 178 36 75 40 90 31 112 -11 23 -47 44 -77 44 -7 0 -28 -25
-45 -56 l-32 -56 -19 28 c-43 65 -106 71 -176 16 -105 -84 -224 -227 -264
-318 -14 -30 -39 -60 -77 -89 -100 -79 -215 -106 -292 -67 -42 20 -49 49 -25
102 16 36 17 37 66 32 95 -9 212 76 266 195 31 67 27 117 -12 168 -51 68 -82
69 -163 5 -107 -86 -230 -270 -247 -371 -5 -29 -18 -49 -53 -80 -105 -94 -182
-125 -182 -74 0 35 63 156 154 298 42 66 76 122 76 127 0 19 -58 62 -127 95
-41 19 -73 39 -71 43 45 86 53 146 23 168 -25 19 -105 18 -133 -2 -34 -23 -52
-67 -52 -125 0 -45 4 -55 36 -87 l35 -35 -58 -86 c-96 -143 -267 -300 -368
-338 -16 -6 -14 0 11 32 76 99 114 195 114 289 0 71 -16 101 -65 122 -62 26
-118 -5 -220 -122 -36 -41 -65 -72 -65 -68 0 3 31 63 69 132 101 187 141 269
141 291 0 18 -52 71 -69 71 -35 0 -388 -696 -398 -786 -5 -35 -2 -44 18 -58
47 -32 67 -22 100 51 l30 67 18 -30 c49 -81 136 -96 278 -49 184 62 332 200
500 464 1 3 92 -28 101 -35 2 -1 -12 -26 -30 -56 -96 -150 -168 -311 -168
-377 0 -111 151 -94 298 35 l52 45 10 -28 c33 -90 70 -118 155 -118 69 0 158
37 238 98 26 21 49 37 51 37 2 0 6 -18 10 -41 7 -46 44 -89 77 -89 39 0 94 34
172 109 l77 74 0 -65 c0 -72 16 -98 62 -98 41 0 146 59 202 114 l53 52 -5 -62
c-4 -57 -2 -65 21 -88 46 -46 145 -25 241 53 21 17 39 31 40 31 1 0 0 -15 -2
-34 -3 -27 1 -37 23 -55 43 -33 27 -48 165 150 61 88 272 319 291 319 5 0 -17
-42 -48 -92 -74 -122 -131 -243 -139 -295 -6 -36 -3 -45 21 -68 23 -24 33 -27
74 -23 26 3 69 16 97 29 55 27 204 167 204 193 0 29 -24 17 -60 -30 -66 -87
-185 -163 -212 -136 -13 13 7 58 91 196 91 150 131 229 131 259 0 28 -38 67
-66 67 -34 0 -115 -59 -211 -153 -51 -50 -93 -87 -93 -83 0 4 45 96 100 206
55 109 100 207 100 218 0 19 -52 72 -70 72 -16 0 -102 -152 -228 -400 -105
-209 -132 -253 -180 -303 -55 -56 -121 -97 -155 -97 -27 0 -37 31 -26 81 5 24
57 141 115 260 l106 215 57 -4 c44 -3 61 0 74 13 29 29 20 40 -32 40 -27 0
-52 3 -56 6 -3 4 7 34 24 68 38 74 39 94 5 120 -38 30 -49 27 -82 -21z m-1664
-90 c23 -23 5 -128 -19 -112 -19 11 -40 73 -33 99 7 27 32 33 52 13z m-480
-292 c7 -76 -73 -276 -136 -344 -37 -40 -82 -43 -117 -8 -26 26 -41 82 -31
118 13 55 240 285 270 275 6 -2 12 -21 14 -41z m1630 8 c1 -10 -19 -57 -45
-104 -69 -123 -282 -334 -310 -306 -21 21 104 220 206 329 94 100 142 127 149
81z m-560 -25 c4 -41 -40 -108 -91 -139 -39 -25 -105 -46 -114 -37 -8 9 102
151 146 187 19 17 40 29 46 27 5 -2 11 -19 13 -38z"/>
</g>
</svg>
